<svg xmlns="http://www.w3.org/2000/svg" width="66.375" height="66.375" viewBox="0 0 66.375 66.375">
  <g id="Group_1" data-name="Group 1" transform="translate(-826 -510)">
    <path id="Icon_awesome-expand" data-name="Icon awesome-expand" d="M0,24.177V5.806A3.547,3.547,0,0,1,3.556,2.25H21.927a1.783,1.783,0,0,1,1.778,1.778V9.954a1.783,1.783,0,0,1-1.778,1.778H9.482V24.177A1.783,1.783,0,0,1,7.7,25.955H1.778A1.783,1.783,0,0,1,0,24.177ZM42.67,4.028V9.954a1.783,1.783,0,0,0,1.778,1.778H56.893V24.177a1.783,1.783,0,0,0,1.778,1.778H64.6a1.783,1.783,0,0,0,1.778-1.778V5.806A3.547,3.547,0,0,0,62.819,2.25H44.448A1.783,1.783,0,0,0,42.67,4.028ZM64.6,44.92H58.671A1.783,1.783,0,0,0,56.893,46.7V59.143H44.448a1.783,1.783,0,0,0-1.778,1.778v5.926a1.783,1.783,0,0,0,1.778,1.778H62.819a3.547,3.547,0,0,0,3.556-3.556V46.7A1.783,1.783,0,0,0,64.6,44.92ZM23.705,66.847V60.921a1.783,1.783,0,0,0-1.778-1.778H9.482V46.7A1.783,1.783,0,0,0,7.7,44.92H1.778A1.783,1.783,0,0,0,0,46.7V65.069a3.547,3.547,0,0,0,3.556,3.556H21.927A1.783,1.783,0,0,0,23.705,66.847Z" transform="translate(826 507.75)" fill="#ffa2e9"/>
    <path id="Icon_awesome-cube" data-name="Icon awesome-cube" d="M16.812.443,2.187,5.927A3.38,3.38,0,0,0,0,9.091V24.919a3.373,3.373,0,0,0,1.863,3.016l14.625,7.313a3.351,3.351,0,0,0,3.016,0L34.13,27.935a3.368,3.368,0,0,0,1.863-3.016V9.091a3.37,3.37,0,0,0-2.187-3.157L19.181.45A3.316,3.316,0,0,0,16.812.443ZM18,4.809,31.5,9.872v.077L18,15.434,4.5,9.949V9.872Zm2.25,25.031V19.371L31.5,14.8v9.415Z" transform="translate(841 524.772)" fill="#ffa2e9"/>
  </g>
</svg>
