<svg xmlns="http://www.w3.org/2000/svg" width="124.524" height="100" viewBox="0 0 124.524 100">
  <path id="Icon_awesome-angle-double-right" data-name="Icon awesome-angle-double-right" d="M64.08,62.057,21.593,104.544a7.467,7.467,0,0,1-10.59,0l-7.06-7.06a7.467,7.467,0,0,1,0-10.59L34.058,56.778,3.943,26.662a7.467,7.467,0,0,1,0-10.59l7.029-7.123a7.467,7.467,0,0,1,10.59,0L64.049,51.436a7.476,7.476,0,0,1,.031,10.622Zm59.981-10.622L81.575,8.949a7.467,7.467,0,0,0-10.59,0l-7.06,7.06a7.467,7.467,0,0,0,0,10.59L94.04,56.715,63.924,86.831a7.467,7.467,0,0,0,0,10.59l7.06,7.06a7.467,7.467,0,0,0,10.59,0l42.487-42.487A7.429,7.429,0,0,0,124.061,51.436Z" transform="translate(-1.74 -6.746)"/>
</svg>
