<svg xmlns="http://www.w3.org/2000/svg" xmlns:xlink="http://www.w3.org/1999/xlink" width="126.624" height="102.002" viewBox="0 0 126.624 102.002">
  <defs>
    <linearGradient id="linear-gradient" y1="0.5" x2="1" y2="0.5" gradientUnits="objectBoundingBox">
      <stop offset="0" stop-color="#92a4ff"/>
      <stop offset="1" stop-color="#fcd6f8"/>
    </linearGradient>
  </defs>
  <path id="Icon_awesome-angle-double-right" data-name="Icon awesome-angle-double-right" d="M62.34,55.31,19.85,97.8a7.469,7.469,0,0,1-10.56.03l-.03-.03L2.2,90.74a7.469,7.469,0,0,1-.03-10.56l.03-.03L32.31,50.03,2.2,19.92A7.469,7.469,0,0,1,2.17,9.36l.03-.03L9.23,2.21a7.469,7.469,0,0,1,10.56-.03l.03.03L62.31,44.7a7.472,7.472,0,0,1,.08,10.57l-.05.05h0Zm59.98-10.62L79.83,2.2a7.469,7.469,0,0,0-10.56-.03l-.03.03L62.18,9.26a7.469,7.469,0,0,0-.03,10.56l.03.03L92.3,49.97,62.18,80.09a7.469,7.469,0,0,0-.03,10.56l.03.03,7.06,7.06a7.469,7.469,0,0,0,10.56.03l.03-.03,42.49-42.49a7.354,7.354,0,0,0,.25-10.44.29.29,0,0,0-.25-.12h0Z" transform="translate(1.001 1.001)" stroke="#606060" stroke-width="2" fill="url(#linear-gradient)"/>
</svg>
