<svg xmlns="http://www.w3.org/2000/svg" xmlns:xlink="http://www.w3.org/1999/xlink" width="101.899" height="101.953" viewBox="0 0 101.899 101.953">
  <defs>
    <linearGradient id="linear-gradient" y1="0.5" x2="1" y2="0.5" gradientUnits="objectBoundingBox">
      <stop offset="0" stop-color="#92a4ff"/>
      <stop offset="1" stop-color="#fcd6f8"/>
    </linearGradient>
  </defs>
  <path id="Icon_zocial-call" data-name="Icon zocial-call" d="M.21,19.62a7.36,7.36,0,0,1,1.87-4L17.07.64q1.755-1.5,2.62.5L31.8,23.86a3.28,3.28,0,0,1-.62,3.87l-5.49,5.49a6.188,6.188,0,0,0-1.75,3.87q0,3.75,3.87,9.61a82.082,82.082,0,0,0,7.62,9.99l3.87,3.99c1.17,1.17,2.66,2.6,4.5,4.31a74.307,74.307,0,0,0,9.05,6.74q6.3,4.185,9.93,4.18a5.446,5.446,0,0,0,4-1.62l6.5-6.49a2.751,2.751,0,0,1,3.74-.5L98.87,80.16a1.838,1.838,0,0,1,1,1.31,1.6,1.6,0,0,1-.5,1.44L84.39,97.89a7.331,7.331,0,0,1-3.99,1.87,30.158,30.158,0,0,1-13.8-1.69,62.659,62.659,0,0,1-14.23-6.8q-6.555-4.245-12.17-8.61t-8.99-7.5l-3.25-3.13c-.83-.83-1.93-1.98-3.31-3.43s-3.77-4.33-7.19-8.61A124.508,124.508,0,0,1,8.6,47.44,73.445,73.445,0,0,1,2.11,33.52C.25,28.34-.37,23.7.21,19.62Z" transform="translate(1.001 1.002)" stroke="#606060" stroke-width="2" fill="url(#linear-gradient)"/>
</svg>
