<svg xmlns="http://www.w3.org/2000/svg" xmlns:xlink="http://www.w3.org/1999/xlink" width="102.001" height="103.416" viewBox="0 0 102.001 103.416">
  <defs>
    <linearGradient id="linear-gradient" y1="0.5" x2="1" y2="0.5" gradientUnits="objectBoundingBox">
      <stop offset="0" stop-color="#92a4ff"/>
      <stop offset="1" stop-color="#fcd6f8"/>
    </linearGradient>
  </defs>
  <path id="Icon_material-speaker-notes" data-name="Icon material-speaker-notes" d="M90,0H10A9.98,9.98,0,0,0,.05,10L0,100,20,80H90a10.029,10.029,0,0,0,10-10V10A10.029,10.029,0,0,0,90,0ZM30,60H20V50H30Zm0-15H20V35H30Zm0-15H20V20H30ZM65,60H40V50H65ZM80,45H40V35H80Zm0-15H40V20H80Z" transform="translate(1.001 1)" stroke="#606060" stroke-width="2" fill="url(#linear-gradient)"/>
</svg>
