<svg xmlns="http://www.w3.org/2000/svg" width="99.998" height="100" viewBox="0 0 99.998 100">
  <path id="Icon_awesome-music" data-name="Icon awesome-music" d="M100,6.253A6.246,6.246,0,0,0,91.871.294l-62.5,18.457A6.248,6.248,0,0,0,25,24.708V75.765A27.018,27.018,0,0,0,18.75,75C8.394,75,0,80.6,0,87.5S8.394,100,18.75,100,37.5,94.4,37.5,87.5V41.858l50-14.652v36.06a27.018,27.018,0,0,0-6.25-.766C70.893,62.5,62.5,68.1,62.5,75s8.394,12.5,18.75,12.5S100,81.9,100,75l0-68.747Z" transform="translate(0 0.001)"/>
</svg>
