<svg xmlns="http://www.w3.org/2000/svg" width="99.872" height="100" viewBox="0 0 99.872 100">
  <path id="Icon_zocial-call" data-name="Icon zocial-call" d="M3.477,22.567a7.358,7.358,0,0,1,1.873-4L20.333,3.589q1.75-1.5,2.622.5L35.067,26.813a3.269,3.269,0,0,1-.624,3.871l-5.494,5.494A6.213,6.213,0,0,0,27.2,40.048q0,3.746,3.871,9.614a82.1,82.1,0,0,0,7.616,9.993l3.871,3.992c1.167,1.167,2.661,2.6,4.5,4.308A75.38,75.38,0,0,0,56.106,74.7q6.3,4.185,9.926,4.183a5.435,5.435,0,0,0,4-1.623l6.5-6.493a2.744,2.744,0,0,1,3.742-.5L102.12,83.124a1.825,1.825,0,0,1,1,1.311,1.6,1.6,0,0,1-.5,1.436L87.636,100.854a7.338,7.338,0,0,1-3.992,1.869,30.206,30.206,0,0,1-13.8-1.686,62.44,62.44,0,0,1-14.23-6.8q-6.555-4.243-12.174-8.611T34.45,78.13L31.2,75q-1.247-1.247-3.309-3.434t-7.187-8.611a125.4,125.4,0,0,1-8.865-12.548A73.2,73.2,0,0,1,5.35,36.489Q2.605,28.687,3.477,22.567Z" transform="translate(-3.267 -2.947)"/>
</svg>
